<svg viewBox="-10 0 1034 1024" width="24" height="24" xmlns="http://www.w3.org/2000/svg"><path fill="#8897C1" d="M116.522 294.956c7.17-7.17 16.731-11.95 27.487-11.95s20.317 4.78 27.487 11.95l82.462 82.462c7.17 5.975 10.755 15.536 10.755 25.097 0 9.56-3.585 19.121-9.56 26.292-7.17 7.17-15.537 10.756-26.292 10.756s-20.317-3.586-27.488-10.756l-20.316-20.317V795.7c0 9.56 3.585 20.317 10.756 27.487 7.17 7.17 17.926 11.951 27.487 11.951h658.496c9.56 0 20.316 2.39 27.487 9.56q10.756 10.757 10.756 25.098c0 9.56-3.585 20.316-10.756 27.487-7.17 7.17-17.926 10.756-27.487 10.756H221.69c-29.877 0-58.56-10.756-81.266-33.463s-33.463-51.389-33.463-81.266V408.49l-20.316 20.317c-5.976 7.17-15.537 11.95-25.097 11.95s-19.122-3.585-26.292-9.56c-7.17-7.17-11.951-16.731-11.951-27.487s4.78-19.122 11.95-26.292zm-9.56-157.752c0-9.56 4.78-20.316 11.95-27.487s16.731-10.756 26.292-10.756H801.31c29.877 0 58.56 10.756 81.266 33.463s33.463 51.389 33.463 81.266v384.82l21.511-20.317c5.976-7.17 15.537-11.95 25.097-11.95s19.122 3.585 26.292 9.56c7.171 7.17 10.756 16.731 10.756 27.487s-3.585 19.122-10.756 26.292l-82.46 82.462c-7.171 7.17-15.537 11.95-26.293 11.95s-20.317-4.78-27.487-11.95l-82.461-82.462c-7.171-5.975-11.951-15.536-11.951-25.097 0-9.56 3.585-19.121 9.56-26.292 7.17-7.17 16.732-10.756 27.487-10.756 10.756 0 20.317 3.586 27.488 10.756l20.316 20.317V211.3c0-9.56-4.78-20.317-11.95-27.487-7.171-7.17-16.732-10.756-26.293-10.756h-659.69c-9.562 0-19.122-3.585-26.293-10.756-7.17-7.17-11.95-15.536-11.95-25.097" style="stroke-width:1.19508"/><path style="fill:#8897c1;fill-opacity:1;stroke:#060604;stroke-width:.00834062" d="M8.537 17.139a.7.7 0 0 1-.368-.331c-.11-.214-.098-.336.138-1.376l.217-.96h-.527c-.627 0-.817-.026-.968-.132a.7.7 0 0 1-.235-.829c.073-.17.231-.322.378-.363.062-.017.415-.03.865-.03h.76l.288-1.332c.158-.733.294-1.354.3-1.38.01-.046-.037-.05-.717-.05-.832 0-.862-.007-1.064-.227-.233-.253-.232-.603 0-.867.2-.227.213-.23 1.2-.23.474 0 .862-.006.862-.012 0-.007.118-.532.263-1.167.296-1.306.3-1.317.569-1.454.298-.152.648-.09.81.144a.9.9 0 0 1 .153.423c0 .069-.36 1.865-.404 2.017-.013.046.076.048 1.692.041l1.706-.007.197-.966c.293-1.436.28-1.385.389-1.505.266-.295.799-.305 1.016-.02.108.14.181.326.182.458 0 .067-.1.548-.22 1.068-.122.521-.222.954-.222.963s.29.016.643.016c.615 0 .647.003.78.065q.372.175.373.598c0 .28-.126.483-.372.597-.136.064-.16.065-.92.065-.429 0-.78.005-.78.011s-.13.608-.29 1.338-.29 1.346-.29 1.37c0 .038.086.044.727.044.722 0 .727 0 .867.07.224.111.34.314.34.595a.66.66 0 0 1-.373.614c-.106.057-.15.06-.98.069l-.87.009-.26 1.137c-.143.626-.283 1.183-.311 1.24-.095.19-.337.325-.586.325a.68.68 0 0 1-.526-.27c-.135-.192-.129-.282.092-1.404.107-.55.196-1.006.196-1.015 0-.01-.764-.017-1.697-.017H9.864l-.03.145-.223 1.137c-.108.556-.213 1.023-.238 1.063-.18.282-.536.42-.836.322zm5.051-4.028c0-.013.523-2.626.539-2.692l.015-.063-1.705.007-1.705.008-.269 1.339c-.148.737-.27 1.355-.27 1.374-.002.027.355.034 1.697.034.934 0 1.698-.003 1.698-.007z" transform="translate(-10 -5)scale(43.08333)"/></svg>