<svg viewBox="-10 0 1034 1024" width="24" height="24" xmlns="http://www.w3.org/2000/svg"><path fill="#3399E4" d="m381.298 354.665 65.949 57.07-65.949 76.095h11.414c60.876 0 111.606 49.462 111.606 109.07s-50.73 109.068-111.606 109.068h-44.388c-60.876 0-110.337-49.461-110.337-109.069v-13.95c0-43.12 16.487-84.973 45.657-117.947zm300.573 2.537h88.777v348.766h-88.777V575.339H548.706V358.47h88.777v129.36h44.388zm-352.57 218.137c0 2.537-2.537 5.073-2.537 7.61v13.95c0 12.683 8.877 21.56 21.56 21.56h44.388c12.683 0 22.829-8.877 22.829-21.56s-10.146-21.56-22.829-21.56zM29.994 146.673c0-30.437 12.683-60.875 34.243-82.435s51.998-34.243 82.435-34.243h741.922c15.219 0 30.438 2.537 44.388 8.878 13.951 6.341 26.633 15.219 36.78 25.365 10.145 10.146 19.023 24.096 25.364 38.047s8.878 29.17 8.878 44.388v741.922c0 30.438-12.683 59.607-34.243 81.167s-50.73 34.243-81.167 34.243H146.673c-15.219 0-30.437-2.537-44.388-8.878s-27.901-15.219-38.047-25.365-19.024-22.828-25.365-36.779c-6.341-13.95-8.878-29.17-8.878-44.388Zm126.824-27.9q-15.219 0-26.633 11.413-11.415 11.415-11.414 26.633v720.362c0 5.073 0 8.877 2.537 13.95s5.073 8.878 8.877 12.683 7.61 6.341 12.683 8.877 8.877 2.537 13.95 2.537H877.18q15.218 0 26.633-11.414t11.414-26.633V156.819q0-15.219-11.414-26.633t-26.633-11.414z" style="stroke-width:1.26823"/></svg>