<svg viewBox="-10 0 1034 1024" width="24" height="24" xmlns="http://www.w3.org/2000/svg"><path fill="#21af52" fill-opacity=".9" d="M475.798 303.647c0-22.302 18.957-41.26 41.26-41.26s41.259 18.958 41.259 41.26v180.648l142.734 71.367c14.496 6.69 22.302 21.187 22.302 36.799 0 6.69-1.115 13.381-4.46 18.957-6.691 14.496-22.303 23.417-37.914 23.417-5.576 0-12.266-1.115-17.842-4.46L498.101 546.74c-14.497-6.69-22.303-21.187-22.303-36.799zm41.26-123.777c-182.879 0-331.188 147.194-331.188 330.072S334.18 841.13 517.058 841.13 847.13 692.82 847.13 509.942 699.936 179.87 517.058 179.87m0-82.518c227.482 0 412.59 185.108 412.59 412.59 0 227.483-185.108 413.706-412.59 413.706-227.483 0-413.706-186.223-413.706-413.706 0-227.482 186.223-412.59 413.706-412.59" style="stroke-width:1.11512"/></svg>