<svg ti:v="1" width="24" height="24" viewBox="0 0 16 16" xmlns="http://www.w3.org/2000/svg" xmlns:ti="urn:schemas-jetbrains-com:tisvg"><linearGradient id="a" x1=".5" y1="0" x2=".5" y2="1"><stop offset="0" stop-color="purple"/><stop offset="1" stop-color="#5B005B"/></linearGradient><path fill-rule="evenodd" d="M5 13.25v-5.5L10 5l5 2.75v5.5L10 16z" fill="url(#a)"/><linearGradient id="b" x1=".028" y1=".5" x2="1.015" y2=".5"><stop offset="0" stop-color="#FD59FF"/><stop offset="1" stop-color="#FF9CFF"/></linearGradient><path fill-rule="evenodd" d="M6 8.801v3.858l4 2.199V11z" fill="url(#b)"/><linearGradient id="c" x1=".028" y1=".5" x2="1.015" y2=".5"><stop offset="0" stop-color="#FD33FF"/><stop offset="1" stop-color="#FFA3FF"/></linearGradient><path fill-rule="evenodd" d="M14 8.801 10 11v3.858l4-2.199z" fill="url(#c)"/><path fill-rule="evenodd" d="m13.379 8-3.38 1.858L6.622 8 6 8.342V8.8l4 2.2 4-2.199v-.46z" fill="#FFE6FF"/><linearGradient id="d" x1=".5" y1=".028" x2=".5" y2="1.016"><stop offset="0" stop-color="#FD54FF"/><stop offset="1" stop-color="#FFBFFF"/></linearGradient><path fill-rule="evenodd" d="M10 9.858 13.379 8 10 6.142 6.621 8z" fill="url(#d)"/><linearGradient id="e" x1=".5" y1=".019" x2=".5" y2="1.02"><stop offset="0" stop-color="#566980"/><stop offset="1" stop-color="#2D3642"/></linearGradient><path fill-rule="evenodd" d="m9.193 0-.804.307A9.6 9.6 0 0 1 5 .913 9.6 9.6 0 0 1 1.611.307L.807 0H.541L.285.992A9 9 0 0 0 0 3.242C0 7.031 2.196 10 5 10s5-2.969 5-6.758c0-.762-.096-1.52-.285-2.25L9.459 0z" fill="url(#e)"/><linearGradient id="f" x1=".5" y1="0" x2=".5" y2="1"><stop offset="0" stop-color="#F6FBFF"/><stop offset="1" stop-color="#E8F4FF"/></linearGradient><path fill-rule="evenodd" d="M5 1.913c-1.355 0-2.629-.244-3.747-.672A8 8 0 0 0 1 3.242C1 6.422 2.791 9 5 9s4-2.578 4-5.758a8 8 0 0 0-.253-2.001A10.5 10.5 0 0 1 5 1.913" fill="url(#f)"/><path fill-rule="evenodd" d="M3 6c0 1 1.04 2 2 2s2-1 2-2c-.615.725-3.385.725-4 0m3.06-3a2.2 2.2 0 0 0-.06.5C6 4.329 6.447 5 7 5s1-.671 1-1.5c0-.176-.023-.343-.06-.5zm-4 0a2.2 2.2 0 0 0-.06.5C2 4.329 2.447 5 3 5s1-.671 1-1.5c0-.176-.023-.343-.06-.5z"/></svg>