<svg ti:v="1" width="24" height="24" viewBox="0 0 16 16" xmlns="http://www.w3.org/2000/svg" xmlns:ti="urn:schemas-jetbrains-com:tisvg"><g fill-rule="evenodd"><path d="M5 13.25v-5.5L10 5l5 2.75v5.5L10 16l-5-2.75Z" fill="#242424"/><path d="M6 8.8v3.859l4 2.2v-3.86L6 8.802Zm8 0L10 11v3.859l4-2.2V8.8Z" fill="#B180D3"/><path d="m13.379 8-3.38 1.858L6.622 8 6 8.342V8.8l4 2.2 4-2.199v-.46L13.379 8Z" fill="#282828"/><path d="M10 9.858 13.379 8 10 6.141l-3.379 1.86L10 9.857Z" fill="#B180D3"/><path d="M9.459 0h-.266L8.39.308A9.609 9.609 0 0 1 5 .913 9.613 9.613 0 0 1 1.61.308L.807 0H.541L.285.991A9.007 9.007 0 0 0 0 3.242C0 7.031 2.196 10 5 10s5-2.969 5-6.758c0-.762-.096-1.519-.285-2.251L9.459 0Z" fill="#242424"/><path d="M5 1.913a10.51 10.51 0 0 1-3.747-.672A8.016 8.016 0 0 0 1 3.242C1 6.422 2.791 9 5 9s4-2.578 4-5.758c0-.704-.092-1.377-.253-2.001A10.51 10.51 0 0 1 5 1.913Z" fill="#C3C3C3"/><path d="M3 6c0 1 1.04 2 2 2s2-1 2-2c-.615.725-3.385.725-4 0Zm-.94-3a2.172 2.172 0 0 0-.06.5C2 4.329 2.446 5 3 5c.553 0 1-.671 1-1.5 0-.176-.023-.343-.06-.5H2.06Zm4 0a2.172 2.172 0 0 0-.06.5C6 4.329 6.446 5 7 5c.553 0 1-.671 1-1.5 0-.176-.023-.343-.06-.5H6.06Z" fill="#282828"/></g></svg>