<svg viewBox="-10 0 1034 1024" width="24" height="24" xmlns="http://www.w3.org/2000/svg"><path fill-opacity=".85" d="M529.245 361.22v309.56h25.038c6.829 0 12.52 2.277 18.21 6.83 5.69 4.552 7.966 11.38 6.828 19.347-1.138 7.966-3.414 13.657-7.966 18.21q-6.829 6.828-17.072 6.828H450.717q-10.244 0-17.072-6.829c-4.552-4.552-6.828-10.243-7.966-18.21-1.138-7.966 1.138-14.794 6.828-19.347 5.69-4.552 11.381-6.828 18.21-6.828h27.314V361.219h-78.528v27.315q0 10.242-6.829 17.071c-4.552 4.552-11.38 7.967-19.348 7.967-7.966 0-13.657-3.415-18.21-7.967-4.551-4.552-6.828-11.381-6.828-19.348v-51.214c0-6.828 2.277-13.657 6.829-18.21 4.552-4.552 11.38-6.828 19.348-6.828h258.347q10.242 0 17.071 6.829c4.552 4.552 6.829 11.38 6.829 18.21v53.49q0 10.242-6.829 17.071c-4.552 4.552-10.243 7.967-18.21 7.967-7.966 0-14.795-3.415-19.347-7.967s-6.829-11.381-6.829-19.348V361.22zm-439.304 0c0-42.11 14.795-78.53 45.524-109.258s67.147-45.523 109.257-45.523h515.556c42.11 0 78.529 14.795 109.257 45.523s45.524 67.148 45.524 109.257v309.562c0 42.11-14.795 78.528-45.524 109.257s-67.147 45.523-109.257 45.523H244.722c-42.11 0-78.529-14.795-109.257-45.523S89.94 712.89 89.94 670.78Zm154.78-102.43c-28.451 0-52.351 9.106-72.837 29.591-20.486 20.486-30.729 44.386-30.729 72.838v309.562c0 28.452 10.243 52.352 30.729 72.838s44.386 30.728 72.838 30.728h515.556c28.452 0 52.352-10.243 72.838-30.728 20.486-20.486 30.729-44.386 30.729-72.838V361.219c0-28.452-10.243-52.352-30.729-72.838s-44.386-29.59-72.838-29.59z" style="stroke-width:1.13811"/></svg>