<svg viewBox="-10 0 1034 1024" width="24" height="24" xmlns="http://www.w3.org/2000/svg"><path fill="#B362CA" d="M639.926 514.374c22.891 25.663 41.49 61.306 54.367 109.78l12.877 68.435c4.292 19.96 8.584 34.217 12.876 44.197 14.308 32.791 41.492 67.009 78.69 101.226 11.446 9.98 14.308 21.386 11.446 35.643s-11.445 22.811-25.753 27.088-25.753 1.426-35.768-8.554c-45.783-41.346-77.26-81.266-95.859-124.037-5.723-15.683-12.876-35.643-17.169-58.455l-11.445-57.029c-8.585-41.345-21.461-69.86-38.63-86.968-14.307-14.257-35.768-22.812-61.521-22.812H512.59c-31.476 2.852-51.507 12.832-62.952 29.94-14.308 22.812-22.892 52.752-25.753 86.97 0 5.702-1.431 11.405-1.431 17.108 0 28.514 5.723 58.454 15.738 88.394 15.738 58.455 37.199 115.483 65.813 169.66 8.585 12.832 8.585 24.238 0 37.07-7.153 12.83-20.03 19.96-34.337 18.534s-25.753-8.555-31.476-22.812c-30.046-58.454-54.368-118.334-71.537-181.066-11.445-37.069-17.168-72.712-17.168-108.355 0-9.98 0-19.96 1.43-29.94 4.293-44.197 15.738-82.691 34.338-114.057 15.738-25.663 40.06-42.772 71.536-54.177 20.03-7.129 40.06-9.98 60.09-9.98 11.447 0 24.323 1.425 37.2 2.851 34.337 5.703 62.952 19.96 85.844 41.346zM522.606 628.43c11.446-1.425 20.03 1.426 27.184 8.555 7.153 7.128 10.015 15.682 10.015 27.088 2.861 76.989 27.184 146.85 71.536 209.58l25.753 32.792c5.723 8.555 8.585 15.683 7.154 25.663-1.43 9.98-5.723 18.535-12.877 24.237q-10.73 8.555-25.753 8.555c-15.023 0-17.168-2.852-22.891-8.555l-18.6-24.237c-61.521-78.414-94.428-166.809-97.29-265.183 0-11.406 4.293-19.96 11.446-27.089 7.154-7.129 14.308-11.406 24.323-11.406M340.903 380.356c50.076-37.068 105.874-58.454 167.396-59.88h7.153c58.66 0 110.166 15.683 155.95 44.197 47.214 29.94 81.551 65.583 103.012 102.652 4.292 9.98 7.154 17.109 4.292 27.089s-8.584 17.108-17.168 22.811c-8.585 5.703-17.17 7.129-27.184 4.277-10.015-2.851-18.6-7.128-22.892-17.108-17.169-28.515-42.922-54.177-78.69-76.989-34.337-21.386-72.967-32.791-115.89-32.791h-7.153c-45.783 1.425-88.705 15.682-125.904 44.197-37.199 28.514-65.813 65.583-84.413 114.057-14.307 38.495-21.46 79.84-21.46 121.186 0 11.406 0 21.386 1.43 32.792 5.723 59.88 25.753 121.186 57.229 183.917 2.861 8.555 2.861 17.109 0 27.089s-10.015 15.683-18.6 19.96c-8.584 4.277-17.168 4.277-27.183 1.426s-17.17-8.554-21.461-15.683c-35.768-69.86-57.23-139.72-62.952-208.155-1.431-15.683-1.431-29.94-1.431-44.197 0-51.326 7.154-99.8 24.322-145.423 22.892-61.306 61.522-109.78 111.597-145.424m450.68 208.155c11.446 0 20.03 4.277 27.184 11.406 7.153 7.129 11.446 14.257 12.876 24.237q2.147 44.91 21.461 72.712c10.015 15.683 18.6 27.088 28.615 31.366h1.43q15.024 4.277 21.462 17.108c4.292 8.554 5.723 18.534 2.861 28.515-2.861 9.98-10.015 18.534-18.6 22.811-8.584 4.277-17.168 4.277-27.183 1.426-27.184-7.129-50.076-27.089-70.106-58.455-20.03-31.365-32.907-68.434-35.768-111.206 0-11.405 4.292-19.96 11.446-27.088 7.153-7.129 14.307-11.406 24.322-12.832M425.316 217.825c4.292 9.98 5.723 18.534 1.431 28.514s-10.015 15.683-20.03 19.96c-90.136 41.346-155.95 98.374-200.302 173.938-27.184 45.622-44.353 95.523-54.368 148.274-4.292 27.089-7.154 55.603-7.154 82.692 0 22.811 1.431 44.197 4.292 65.583 1.431 11.406-1.43 21.386-7.153 28.514s-14.307 12.832-24.323 14.257c-10.015 1.426-20.03-1.425-27.183-7.128-8.585-5.703-12.877-14.257-14.308-25.663-2.861-25.663-5.723-52.752-5.723-78.415 0-29.94 2.862-59.88 8.585-91.246 12.876-62.731 32.907-121.186 62.952-173.937 51.506-89.82 130.196-156.83 234.64-203.878 10.015-2.851 17.168-2.851 27.183 0s17.17 8.554 21.461 18.535m115.89-38.495c90.135 1.426 178.84 41.346 267.546 121.186s143.073 186.77 161.672 323.638q4.293 21.386-12.876 34.217c-11.446 8.555-24.323 9.98-37.2 4.278-12.876-5.703-21.46-14.258-22.891-28.515-15.738-116.909-61.521-211.006-137.35-278.015S608.45 253.467 538.344 252.042c-10.015 0-17.169-2.852-24.323-9.98-7.153-7.129-10.015-15.683-10.015-25.663s2.862-18.535 10.015-25.663 15.738-11.406 27.184-11.406zm-337.653 0c5.723 7.129 10.015 17.109 8.585 27.089-1.431 9.98-5.723 19.96-12.877 25.663-12.877 11.405-25.753 22.811-40.06 39.92-14.308 17.108-28.615 38.494-42.922 61.306-5.723 12.831-15.738 18.534-30.046 18.534s-25.753-5.703-32.906-18.534c-7.154-12.832-7.154-24.238 0-35.643 14.307-27.089 30.045-51.326 48.644-72.712 17.17-17.109 34.338-32.791 50.076-47.049 5.723-7.128 14.307-12.831 24.322-11.405 10.015 1.425 20.03 4.277 27.184 12.831M526.898 33.907c108.735 4.277 198.871 34.217 271.839 91.246 7.153 5.703 12.876 15.683 14.307 25.663 1.43 9.98-1.43 19.96-7.154 27.088-5.723 8.555-14.307 12.832-24.322 14.258s-20.03-1.426-27.184-7.129c-60.09-47.049-137.35-74.137-231.778-78.414h-18.6c-80.12 0-151.657 17.108-213.178 49.9-10.015 4.277-18.6 5.702-28.615 2.851s-15.738-7.129-21.46-15.683c-5.724-8.554-8.585-17.108-5.724-27.088s8.585-18.535 18.6-24.238c68.675-39.92 148.796-58.454 243.224-58.454z" style="stroke-width:1.42821"/></svg>