<svg viewBox="-10 0 1034 1024" width="24" height="24" xmlns="http://www.w3.org/2000/svg"><path fill="#B99118" d="M844.17 968.374H742.934V334.336h101.233zm-49.285-793.879c-18.65 0-33.3-6.66-46.621-18.649-13.32-11.987-18.648-27.972-18.648-46.62s5.328-35.964 18.649-47.952c13.32-13.32 27.972-18.648 46.62-18.648s33.3 5.328 46.62 18.648c13.32 11.988 19.98 29.304 19.98 47.952 0 18.65-6.66 31.968-19.98 45.289-13.32 13.32-27.972 19.98-46.62 19.98M620.39 968.375H159.514V81.254H263.41V873.8h356.98z" style="stroke-width:1.332"/></svg>