<svg viewBox="-10 0 1034 1024" width="24" height="24" xmlns="http://www.w3.org/2000/svg"><path fill="#b141d1" d="M744.858 693.689c15.642 16.003 28.35 38.23 37.15 68.457l8.8 42.674c2.932 12.447 5.865 21.337 8.798 27.56 9.777 20.449 28.352 41.786 53.77 63.123 7.822 6.224 9.778 13.336 7.822 22.227-1.955 8.89-7.82 14.224-17.598 16.891-9.776 2.668-17.597.89-24.44-5.334-31.286-25.783-52.795-50.676-65.504-77.347-3.91-9.78-8.798-22.226-11.732-36.451l-7.82-35.563c-5.867-25.782-14.665-43.563-26.397-54.231-9.777-8.89-24.442-14.225-42.04-14.225h-7.821c-21.509 1.778-35.197 8.002-43.017 18.67-9.777 14.225-15.643 32.895-17.598 54.233 0 3.555-.978 7.111-.978 10.668 0 17.78 3.91 36.45 10.754 55.12 10.755 36.452 25.42 72.013 44.972 105.797 5.867 8.002 5.867 15.115 0 23.116-4.888 8-13.687 12.447-23.463 11.558-9.777-.89-17.598-5.335-21.509-14.225-20.53-36.451-37.15-73.791-48.883-112.91-7.82-23.115-11.731-45.341-11.731-67.568 0-6.223 0-12.446.977-18.67 2.933-27.56 10.754-51.564 23.464-71.123 10.754-16.003 27.374-26.672 48.883-33.784 13.687-4.446 27.374-6.223 41.06-6.223 7.823 0 16.621.888 25.42 1.777 23.464 3.557 43.017 12.447 58.66 25.783zm-80.168 71.123c7.821-.889 13.687.89 18.575 5.335s6.844 9.779 6.844 16.891c1.955 48.01 18.575 91.573 48.882 130.69l17.598 20.449c3.91 5.334 5.866 9.78 4.889 16.003-.978 6.223-3.911 11.558-8.8 15.113q-7.332 5.335-17.597 5.335c-6.844 0-11.732-1.778-15.642-5.335l-12.71-15.113c-42.04-48.898-64.526-104.02-66.481-165.363 0-7.113 2.933-12.447 7.821-16.892 4.889-4.446 9.777-7.113 16.62-7.113zM540.527 610.118c34.218-23.115 72.347-36.45 114.386-37.34h4.888c40.084 0 75.28 9.78 106.565 27.56 32.263 18.67 55.726 40.897 70.391 64.012 2.933 6.224 4.889 10.669 2.933 16.892-1.955 6.224-5.866 10.669-11.732 14.225s-11.732 4.445-18.575 2.667c-6.844-1.778-12.71-4.445-15.643-10.668-11.732-17.782-29.33-33.784-53.77-48.01-23.464-13.335-49.861-20.447-79.192-20.447h-4.887c-31.285.889-60.615 9.779-86.034 27.56s-44.972 40.897-57.682 71.124c-9.776 24.005-14.664 49.787-14.664 75.57 0 7.112 0 13.335.977 20.448 3.91 37.34 17.598 75.569 39.106 114.687 1.955 5.335 1.955 10.669 0 16.892s-6.843 9.78-12.71 12.447c-5.865 2.667-11.731 2.667-18.574.889-6.844-1.779-11.733-5.334-14.665-9.78-24.442-43.563-39.107-87.126-43.017-129.801-.978-9.78-.978-18.67-.978-27.56 0-32.006 4.889-62.234 16.62-90.683 15.643-38.23 42.04-68.457 76.257-90.684M848.49 739.919c7.821 0 13.687 2.667 18.576 7.113 4.887 4.445 7.82 8.89 8.798 15.114q1.467 28.005 14.665 45.341c6.844 9.78 12.71 16.892 19.553 19.56h.978q10.266 2.666 14.665 10.668c4.399 8.002 3.91 11.557 1.955 17.781s-6.843 11.558-12.71 14.225c-5.865 2.667-11.731 2.667-18.575.889-18.575-4.446-34.218-16.892-47.905-36.451s-22.486-42.675-24.441-69.346c0-7.112 2.933-12.447 7.821-16.892s9.776-7.112 16.62-8.002M598.21 508.767c2.933 6.223 3.91 11.557.978 17.78s-6.844 9.78-13.687 12.447c-61.593 25.783-106.565 61.344-136.872 108.465-18.576 28.449-30.308 59.566-37.151 92.46-2.933 16.893-4.889 34.673-4.889 51.565 0 14.225.978 27.56 2.933 40.897.978 7.112-.977 13.336-4.888 17.78-3.91 4.446-9.776 8.002-16.62 8.89-6.844.89-13.687-.888-18.575-4.444-5.867-3.556-8.8-8.89-9.777-16.003-1.955-16.003-3.911-32.895-3.911-48.898 0-18.67 1.956-37.34 5.866-56.9 8.799-39.117 22.487-75.568 43.017-108.463 35.196-56.01 88.967-97.796 160.336-127.134 6.844-1.778 11.731-1.778 18.575 0s11.733 5.334 14.665 11.558m79.19-24.005c61.592.89 122.207 25.783 182.822 75.57s97.766 116.465 110.475 201.814q2.934 13.336-8.799 21.337c-7.821 5.334-16.62 6.223-25.42 2.667-8.798-3.556-14.664-8.89-15.641-17.781-10.755-72.902-42.04-131.58-93.855-173.365s-103.632-64.011-151.537-64.9c-6.844 0-11.732-1.779-16.62-6.223-4.888-4.446-6.844-9.78-6.844-16.003s1.956-11.558 6.843-16.003c4.889-4.446 10.755-7.113 18.576-7.113m-230.727 0c3.91 4.446 6.844 10.669 5.866 16.892-.977 6.224-3.91 12.447-8.799 16.003-8.799 7.112-17.597 14.225-27.374 24.894s-19.553 24.004-29.33 38.229c-3.91 8.001-10.754 11.557-20.53 11.557s-17.599-3.556-22.486-11.557c-4.889-8.002-4.889-15.115 0-22.226 9.776-16.893 20.53-32.006 33.24-45.342 11.732-10.67 23.463-20.448 34.218-29.34 3.91-4.444 9.776-8 16.62-7.111 6.843.889 13.687 2.667 18.575 8.001m220.95-90.683c74.302 2.667 135.895 21.337 185.756 56.9 4.887 3.556 8.798 9.78 9.776 16.002.977 6.224-.977 12.447-4.889 16.892-3.91 5.335-9.776 8.002-16.62 8.89-6.843.89-13.687-.888-18.575-4.445-41.061-29.338-93.855-46.23-158.38-48.897h-12.71c-54.748 0-103.632 10.668-145.67 31.117-6.844 2.667-12.71 3.555-19.554 1.777-6.843-1.777-10.754-4.445-14.664-9.78-3.911-5.333-5.866-10.667-3.911-16.89s5.866-11.559 12.71-15.115c46.927-24.893 101.676-36.45 166.201-36.45z" style="stroke-width:.932294"/><path fill="none" d="M-77.781-156.512h902.424v923.69H-77.781Z" style="stroke-width:3.56638"/><path fill="none" stroke="#0093ff" stroke-linecap="round" stroke-linejoin="round" stroke-width="83.119" d="M65.162 65.573v500.785M299.691 204.68v111.285m-104.848-34.429 104.848 34.43m-64.84 90.071 64.84-90.072m64.84 90.072-64.84-90.072m104.848-34.429-104.848 34.43M630.79 204.68v111.285m-104.848-34.429 104.848 34.43m-64.84 90.071 64.84-90.072m64.84 90.072-64.84-90.072m104.848-34.429-104.848 34.43"/></svg>