<svg viewBox="-10 0 1034 1024" width="24" height="24" xmlns="http://www.w3.org/2000/svg"><path fill="#B141D1" opacity=".9" d="M328.053 652.289c0-9.56 3.586-20.317 10.756-27.487s17.926-10.756 27.487-10.756h180.46c9.56 0 20.316 2.39 27.486 9.56q10.755 10.757 10.756 25.098c0 9.56-3.585 20.316-10.756 27.487-7.17 7.17-17.926 10.756-27.487 10.756H366.296c-9.56 0-19.121-2.39-26.292-9.561-7.17-7.17-11.95-15.536-11.95-25.097zm0-146.996c0-9.561 3.586-20.317 10.756-27.487 7.17-7.171 17.926-10.756 27.487-10.756H657.9c9.56 0 19.121 2.39 26.292 9.56 7.17 7.171 11.95 15.537 11.95 25.097s-4.78 20.317-11.95 27.487c-7.17 7.171-16.731 10.756-26.292 10.756H366.296c-9.56 0-19.121-2.39-26.292-9.56-7.17-7.171-11.95-15.537-11.95-25.097zm0-146.997c0-9.56 3.586-20.316 10.756-27.487s17.926-10.756 27.487-10.756H657.9c9.56 0 19.121 2.39 26.292 9.561 7.17 7.17 11.95 15.536 11.95 25.097 0 9.56-4.78 20.317-11.95 27.487s-16.731 10.756-26.292 10.756H366.296c-9.56 0-19.121-2.39-26.292-9.56-7.17-7.171-11.95-15.537-11.95-25.098zm-211.531-63.34c7.17-7.17 16.731-11.95 27.487-11.95s20.317 4.78 27.487 11.95l82.462 82.462c7.17 5.975 10.755 15.536 10.755 25.097 0 9.56-3.585 19.121-9.56 26.292-7.17 7.17-15.537 10.756-26.292 10.756s-20.317-3.586-27.488-10.756l-20.316-20.317V795.7c0 9.56 3.585 20.317 10.756 27.487 7.17 7.17 17.926 11.951 27.487 11.951h658.496c9.56 0 20.316 2.39 27.487 9.56q10.755 10.757 10.756 25.098c0 9.56-3.585 20.316-10.756 27.487-7.17 7.17-17.926 10.756-27.487 10.756H221.69c-29.877 0-58.56-10.756-81.266-33.463s-33.463-51.389-33.463-81.266V408.49l-20.316 20.317c-5.976 7.17-15.537 11.95-25.097 11.95s-19.122-3.585-26.292-9.56c-7.17-7.17-11.951-16.731-11.951-27.487s4.78-19.122 11.95-26.292zm-9.56-157.752c0-9.56 4.78-20.316 11.95-27.487s16.731-10.756 26.292-10.756H801.31c29.877 0 58.56 10.756 81.266 33.463s33.463 51.389 33.463 81.266v384.82l21.511-20.317c5.976-7.17 15.537-11.95 25.097-11.95s19.122 3.585 26.292 9.56c7.171 7.17 10.756 16.731 10.756 27.487s-3.585 19.122-10.756 26.292l-82.46 82.462c-7.171 7.17-15.537 11.95-26.293 11.95s-20.317-4.78-27.487-11.95l-82.461-82.462c-7.171-5.975-11.951-15.536-11.951-25.097 0-9.56 3.585-19.121 9.56-26.292 7.17-7.17 16.732-10.756 27.487-10.756 10.756 0 20.317 3.586 27.488 10.756l20.316 20.317V211.3c0-9.56-4.78-20.317-11.95-27.487-7.171-7.17-16.732-10.756-26.293-10.756h-659.69c-9.562 0-19.122-3.585-26.293-10.756-7.17-7.17-11.95-15.536-11.95-25.097" style="stroke-width:1.19508"/></svg>