<svg viewBox="-10 0 1034 1024" xmlns="http://www.w3.org/2000/svg" width="24" height="24"><path fill="#DDE81B" d="M511.878 855.316c8.704 0 17.408 3.73 24.868 9.947 7.46 6.216 9.947 13.677 9.947 22.38l2.487 75.846c0 8.704-2.487 16.164-9.947 23.624-7.46 7.46-16.164 9.947-24.868 11.19-8.704 1.244-17.407-1.243-24.867-7.46-7.46-6.216-12.434-14.92-13.678-23.624v-74.602c0-11.19 2.487-18.65 9.947-26.111 7.46-7.46 14.92-11.19 26.111-11.19zm285.976-98.227 50.979 50.978c7.46 7.46 11.19 16.164 11.19 24.868 0 8.703-2.487 16.164-9.947 23.624-7.46 7.46-16.164 11.19-26.11 11.19-9.948 0-18.651-3.73-26.112-9.947l-49.735-49.735c-11.19-8.703-14.92-21.137-11.19-34.814 3.73-13.677 13.677-22.38 27.354-26.111 13.677-3.73 24.868-1.243 33.571 9.947zm-520.973 0c6.216 6.217 9.947 14.92 9.947 24.867 0 9.947-3.73 18.651-9.947 26.111l-52.222 49.735c-8.704 11.19-21.138 14.92-34.815 11.19-13.677-3.73-22.38-13.676-24.867-27.354-2.487-13.677 1.243-24.867 9.947-33.57l49.735-50.979c7.46-7.46 16.164-11.19 26.11-11.19 9.948 0 18.651 3.73 26.112 11.19zm234.997-497.35c47.249 0 92.01 11.19 131.798 34.815 39.788 23.624 72.116 55.952 95.74 95.74 23.624 39.788 36.058 84.549 36.058 131.797 0 47.248-12.434 92.01-36.058 131.798-23.624 39.788-55.952 72.116-95.74 95.74-39.788 23.624-84.55 34.814-131.798 34.814-47.248 0-90.766-11.19-130.554-34.814-39.788-23.624-72.116-55.952-95.74-95.74-23.624-39.788-36.058-84.55-36.058-131.798 0-47.248 12.434-92.01 36.058-131.797 23.624-39.788 55.952-72.116 95.74-95.74 39.788-23.624 83.306-34.815 130.554-34.815zm0 70.873c-53.465 0-98.226 18.65-135.528 55.951-37.3 37.302-55.951 82.063-55.951 135.528 0 53.465 18.65 98.227 55.952 135.528 37.3 37.301 82.062 55.952 135.527 55.952 53.465 0 99.47-18.65 136.772-55.952 37.3-37.301 55.951-82.063 55.951-135.528 0-53.465-18.65-98.226-55.952-135.528-37.3-37.3-83.306-55.951-136.77-55.951zM475.82 377.86c8.704 1.243 16.164 6.217 23.625 11.19 7.46 4.974 11.19 12.434 12.433 21.138V522.09h59.682c8.704 0 17.408 2.487 24.868 8.704 7.46 6.217 11.19 14.92 12.433 23.624v4.973c0 8.704-3.73 16.164-9.946 22.381-6.217 6.217-13.678 9.947-22.381 11.19H475.82c-8.703 0-16.163-2.486-22.38-7.46-6.217-4.973-9.947-13.677-11.19-22.38V415.16c0-8.704 2.486-17.407 9.946-24.867 7.46-7.46 14.92-11.19 23.624-9.947zm477.456 110.66c8.704 0 16.164 2.487 23.624 8.704 7.46 6.217 11.19 13.677 12.434 22.38 1.243 8.704-2.487 18.651-8.704 26.111-6.216 7.46-13.677 12.434-22.38 13.677h-78.333c-8.704 0-16.164-3.73-23.624-9.946-7.46-6.217-9.947-13.678-11.19-23.625-1.244-9.947 1.243-17.407 7.46-24.867 6.217-7.46 14.92-11.19 23.624-12.434zm-808.193-2.487c8.704 0 16.164 2.487 23.624 9.947 7.46 7.46 9.947 14.92 11.19 23.625 1.244 8.703-1.243 17.407-7.46 24.867-6.217 7.46-14.92 11.19-23.624 12.434h-77.09c-8.703 0-16.163-3.73-23.623-9.947-7.46-6.217-11.19-13.677-12.434-22.381-1.243-8.704 2.487-17.407 8.704-24.867 6.216-7.46 13.677-12.434 22.38-13.678zm77.09-304.626 2.486 4.973 52.222 49.735c6.216 6.217 9.947 14.92 9.947 24.868 0 9.947-3.73 17.407-9.947 24.867-6.217 7.46-13.678 9.947-22.381 11.19-8.704 1.244-17.407 0-24.868-4.973l-54.708-55.952c-6.217-6.217-9.947-13.677-9.947-23.624s3.73-17.407 9.947-24.867c6.217-7.46 13.677-9.947 22.38-11.19 8.704-1.244 17.408 0 24.868 4.973zm626.66 4.973c7.46 6.217 11.19 13.677 11.19 22.38 0 8.705-2.487 17.408-7.46 23.625l-54.709 54.708c-6.216 6.217-13.677 8.704-22.38 9.948-8.704 1.243-17.408-1.244-24.868-7.46-7.46-6.218-12.434-14.921-13.677-23.625-1.243-8.703 2.487-17.407 8.704-24.867l52.221-54.709c7.46-7.46 16.164-11.19 26.111-11.19s18.65 3.73 24.868 11.19zM511.878 44.636c8.704 0 17.408 2.486 24.868 8.703 7.46 6.217 9.947 14.92 9.947 23.624l2.487 74.603c0 8.703-2.487 17.407-9.947 24.867-7.46 7.46-16.164 9.947-24.868 11.19-8.704 1.244-17.407-2.486-24.867-7.46-7.46-4.973-11.19-12.433-11.19-23.624l-2.488-74.602c0-8.704 3.73-18.65 11.19-26.111 7.461-7.46 16.165-11.19 24.868-11.19z" style="stroke-width:1.24336"/></svg>