<svg viewBox="-10 0 1034 1024" xmlns="http://www.w3.org/2000/svg" width="24" height="24"><path fill="#B2BC05" d="M511.878 855.316c8.704 0 17.408 3.73 24.868 9.947s9.947 13.677 9.947 22.38l2.487 75.846c0 8.704-2.487 16.164-9.947 23.624s-16.164 9.947-24.868 11.19-17.407-1.243-24.867-7.46-12.434-14.92-13.678-23.624v-74.602c0-11.19 2.487-18.65 9.947-26.111 7.46-7.46 14.92-11.19 26.111-11.19m285.976-98.227 50.979 50.978c7.46 7.46 11.19 16.164 11.19 24.868s-2.487 16.164-9.947 23.624q-11.19 11.19-26.11 11.19c-9.948 0-18.651-3.73-26.112-9.947l-49.735-49.735c-11.19-8.703-14.92-21.137-11.19-34.814s13.677-22.38 27.354-26.111c13.677-3.73 24.868-1.243 33.571 9.947m-520.973 0c6.216 6.217 9.947 14.92 9.947 24.867s-3.73 18.651-9.947 26.111l-52.222 49.735c-8.704 11.19-21.138 14.92-34.815 11.19s-22.38-13.676-24.867-27.354 1.243-24.867 9.947-33.57l49.735-50.979q11.19-11.19 26.11-11.19t26.112 11.19m234.997-497.35c47.249 0 92.01 11.19 131.798 34.815 39.788 23.624 72.116 55.952 95.74 95.74s36.058 84.549 36.058 131.797-12.434 92.01-36.058 131.798-55.952 72.116-95.74 95.74-84.55 34.814-131.798 34.814-90.766-11.19-130.554-34.814-72.116-55.952-95.74-95.74-36.058-84.55-36.058-131.798 12.434-92.01 36.058-131.797c23.624-39.788 55.952-72.116 95.74-95.74s83.306-34.815 130.554-34.815m0 70.873c-53.465 0-98.226 18.65-135.528 55.951-37.3 37.302-55.951 82.063-55.951 135.528s18.65 98.227 55.952 135.528c37.3 37.301 82.062 55.952 135.527 55.952s99.47-18.65 136.772-55.952c37.3-37.301 55.951-82.063 55.951-135.528s-18.65-98.226-55.952-135.528c-37.3-37.3-83.306-55.951-136.77-55.951zM475.82 377.86c8.704 1.243 16.164 6.217 23.625 11.19 7.46 4.974 11.19 12.434 12.433 21.138V522.09h59.682c8.704 0 17.408 2.487 24.868 8.704s11.19 14.92 12.433 23.624v4.973c0 8.704-3.73 16.164-9.946 22.381q-9.326 9.325-22.381 11.19H475.82q-13.054 0-22.38-7.46c-6.217-4.973-9.947-13.677-11.19-22.38V415.16c0-8.704 2.486-17.407 9.946-24.867s14.92-11.19 23.624-9.947zm477.456 110.66c8.704 0 16.164 2.487 23.624 8.704s11.19 13.677 12.434 22.38c1.243 8.704-2.487 18.651-8.704 26.111-6.216 7.46-13.677 12.434-22.38 13.677h-78.333c-8.704 0-16.164-3.73-23.624-9.946-7.46-6.217-9.947-13.678-11.19-23.625s1.243-17.407 7.46-24.867 14.92-11.19 23.624-12.434zm-808.193-2.487c8.704 0 16.164 2.487 23.624 9.947s9.947 14.92 11.19 23.625c1.244 8.703-1.243 17.407-7.46 24.867s-14.92 11.19-23.624 12.434h-77.09c-8.703 0-16.163-3.73-23.623-9.947s-11.19-13.677-12.434-22.381 2.487-17.407 8.704-24.867c6.216-7.46 13.677-12.434 22.38-13.678zm77.09-304.626 2.486 4.973 52.222 49.735c6.216 6.217 9.947 14.92 9.947 24.868s-3.73 17.407-9.947 24.867-13.678 9.947-22.381 11.19c-8.704 1.244-17.407 0-24.868-4.973l-54.708-55.952c-6.217-6.217-9.947-13.677-9.947-23.624s3.73-17.407 9.947-24.867 13.677-9.947 22.38-11.19c8.704-1.244 17.408 0 24.868 4.973zm626.66 4.973q11.19 9.326 11.19 22.38c0 8.705-2.487 17.408-7.46 23.625l-54.709 54.708c-6.216 6.217-13.677 8.704-22.38 9.948-8.704 1.243-17.408-1.244-24.868-7.46-7.46-6.218-12.434-14.921-13.677-23.625-1.243-8.703 2.487-17.407 8.704-24.867l52.221-54.709q11.19-11.19 26.111-11.19c14.921 0 18.65 3.73 24.868 11.19M511.878 44.636c8.704 0 17.408 2.486 24.868 8.703s9.947 14.92 9.947 23.624l2.487 74.603c0 8.703-2.487 17.407-9.947 24.867s-16.164 9.947-24.868 11.19-17.407-2.486-24.867-7.46c-7.46-4.973-11.19-12.433-11.19-23.624l-2.488-74.602c0-8.704 3.73-18.65 11.19-26.111 7.461-7.46 16.165-11.19 24.868-11.19" style="stroke-width:1.24336"/></svg>