<svg viewBox="-10 0 1034 1024" xmlns="http://www.w3.org/2000/svg" width="24" height="24"><path fill="#007e0d" d="M755.09 496.527c8.043 0 14.477 3.217 20.91 9.65 6.434 6.434 8.043 12.868 9.651 20.91s0 14.476-4.825 20.91-12.868 9.65-20.91 11.26H261.301c-8.043 1.608-14.476 0-20.91-6.435-6.434-6.433-8.042-12.867-9.65-20.91-1.61-8.042 1.608-14.475 6.433-20.91 4.825-6.433 11.26-9.65 19.301-11.258zM385.15 282.605c8.043 0 14.476 1.608 20.91 8.042s8.042 11.26 9.65 19.301c1.609 8.042-1.608 14.476-6.433 20.91s-11.26 11.26-19.301 12.867H261.3c-49.862 0-90.073 17.693-127.067 51.47-38.602 35.386-57.904 78.814-57.904 133.5 0 46.645 16.085 90.073 48.253 125.459 33.778 36.994 75.597 56.295 125.459 59.512H385.15c8.043 0 14.476 3.217 20.91 9.65 6.434 6.434 8.042 11.26 9.65 19.302s-1.608 14.476-6.433 20.91-11.26 11.259-19.301 12.867H261.3c-67.555 0-123.85-24.126-172.103-70.771C39.336 657.37 15.21 599.467 15.21 528.696c0-62.73 22.518-119.025 65.946-167.278 45.036-49.861 99.723-75.596 165.669-78.813zm369.94 0c67.555 0 125.459 22.518 173.712 69.163 49.862 48.253 73.988 106.157 73.988 176.928 0 62.729-22.518 120.633-65.946 168.886-45.036 49.861-101.331 75.596-168.886 78.813H631.241c-8.042 0-14.476-3.217-20.91-9.65-6.433-6.434-8.042-11.26-9.65-19.302s1.608-14.476 6.434-20.91c4.825-6.433 11.259-11.258 19.3-12.867h128.676c49.861 0 91.68-17.693 128.675-51.47 38.602-35.386 56.295-78.813 56.295-133.5 0-46.645-16.084-88.464-48.253-123.85-33.777-36.994-73.988-57.904-123.85-61.12H631.241c-8.042 0-14.476-1.609-20.91-8.043s-8.042-12.867-9.65-20.91 1.608-14.475 6.434-20.91c4.825-6.433 11.259-9.65 19.3-11.258z" style="stroke-width:1.60842"/></svg>