<svg viewBox="-10 0 1034 1024" xmlns="http://www.w3.org/2000/svg" width="24" height="24"><path fill="#333" d="M611.162 610.248V944.17h44.523c99.591 0 148.8-56.24 148.8-167.548 0-30.463-2.343-57.411-8.2-78.5-5.86-21.09-15.232-38.666-26.95-51.554-11.716-12.888-26.947-22.261-44.522-28.12-17.575-5.858-38.665-8.201-62.098-8.201zm-58.583-50.382h112.48q101.933 0 151.143 52.725c33.978 35.15 50.382 89.046 50.382 160.517 0 21.09-1.172 41.008-4.687 59.755s-8.202 36.321-15.232 52.725q-10.545 24.604-28.12 45.694c-11.716 12.889-24.604 24.605-41.007 33.979-16.404 9.373-35.15 16.403-57.412 22.261-22.261 4.687-46.866 7.03-74.986 7.03h-92.561zm-353.841 0h260.108v50.382H358.083V944.17h100.763v50.381H198.738V944.17h99.59V610.248h-99.59Zm353.84-522.56h58.584v288.228c0 17.575 1.172 31.635 4.687 44.524s9.373 24.604 16.403 32.806 16.403 15.232 28.12 19.918c11.716 4.687 26.948 5.859 43.351 5.859 31.635 0 53.896-8.202 69.128-26.949 15.231-18.746 23.433-44.523 23.433-77.33V37.307h58.583v283.542c0 23.433-3.515 45.695-10.545 65.613-7.03 18.746-16.403 35.15-29.291 49.21s-29.292 24.604-48.038 31.634c-18.747 7.03-41.008 11.717-65.613 11.717-26.949 0-50.382-3.515-69.128-10.545s-33.978-17.575-45.695-30.463-19.918-28.12-25.776-46.867-8.202-38.664-8.202-60.926zM369.8 31.448c19.918 0 37.493 1.172 55.068 4.687s35.15 9.373 51.553 16.403v59.754c-16.403-8.201-32.806-15.231-50.381-19.918s-36.322-8.201-56.24-8.201c-23.433 0-43.351 4.686-60.926 12.888q-26.363 12.302-45.695 35.15c-11.717 15.231-21.09 32.806-28.12 53.896-5.858 21.09-10.545 44.523-10.545 70.3 0 26.948 2.344 50.381 8.202 71.47 5.858 21.09 12.888 37.494 24.605 52.725 11.716 15.232 25.776 25.777 43.351 33.979s39.837 11.716 64.441 11.716h12.889s10.545-1.171 15.231-2.343c4.687-1.172 9.374-1.172 14.06-2.343 4.687-1.172 8.202-3.515 11.717-4.687V278.668h-89.046v-49.21h147.629v222.616c-9.374 4.686-17.575 8.201-28.12 11.716s-21.09 5.859-31.635 8.202-21.09 3.515-31.635 4.687c-10.545 1.171-19.918 2.343-29.291 2.343-29.292 0-57.412-4.687-80.845-14.06s-44.523-22.262-60.926-41.008-29.291-42.18-38.665-69.128q-14.06-40.422-14.06-94.904c0-36.322 4.687-67.957 15.232-96.077s24.605-51.553 42.18-71.47c18.746-19.919 39.836-35.15 65.613-45.695 25.776-10.545 53.896-15.232 84.36-15.232z" style="stroke-width:1.17165"/></svg>