<svg width="16" height="16" viewBox="0 0 16 16" xmlns="http://www.w3.org/2000/svg"><path fill="#7F54A7" fill-opacity=".9" d="M7.064 7.933 4.76 10.066l1.272 1.178 3.564-3.3-.012-.01.012-.012-3.564-3.3L4.76 5.8zM2 3h12v10H2z"/><path fill="#ad1d45" style="stroke-width:.022406" d="M9.164 9.324h1.138v1.102H9.164Z"/><path fill="#d9195c" style="stroke-width:.022406" d="M10.302 9.324h1.139v1.102h-1.139zm2.278 0h1.138v1.102H12.58z"/><path fill="#d62d75" style="stroke-width:.022406" d="M13.718 9.324h1.139v1.102h-1.139Z"/><path fill="#d9195c" style="stroke-width:.022406" d="M8.025 10.426h1.139v1.102H8.025Z"/><path fill="#ee2178" style="stroke-width:.022406" d="M9.164 10.426h1.138v1.102H9.164Zm1.138 0h1.139v1.102h-1.139z"/><path fill="#d9195c" style="stroke-width:.022406" d="M11.441 10.426h1.139v1.102h-1.14Z"/><path fill="#ee2178" style="stroke-width:.022406" d="M12.58 10.426h1.138v1.102H12.58z"/><path fill="#f7b0cf" style="stroke-width:.022406" d="M13.718 10.426h1.139v1.102h-1.139z"/><path fill="#ad1d45" style="stroke-width:.022406" d="M14.857 10.426h1.138v1.102h-1.138z"/><path fill="#d62d75" style="stroke-width:.022406" d="M8.025 11.528h1.139v1.102H8.025Z"/><path fill="#d9195c" style="stroke-width:.022406" d="M9.164 11.528h1.138v1.102H9.164Zm1.138 0h1.139v1.102h-1.139z"/><path fill="#ad1d45" style="stroke-width:.022406" d="M11.441 11.528h1.139v1.102h-1.14Z"/><path fill="#d9195c" style="stroke-width:.022406" d="M12.58 11.528h1.138v1.102H12.58z"/><path fill="#d62d75" style="stroke-width:.022406" d="M13.718 11.528h1.139v1.102h-1.139z"/><path fill="#ad1d45" style="stroke-width:.022406" d="M14.857 11.528h1.138v1.102h-1.138zM9.164 12.63h1.138v1.103H9.164Z"/><path fill="#ee2178" style="stroke-width:.022406" d="M10.302 12.63h1.139v1.103h-1.139z"/><path fill="#d9195c" style="stroke-width:.022406" d="M11.441 12.63h1.139v1.103h-1.14Z"/><path fill="#ee2178" style="stroke-width:.022406" d="M12.58 12.63h1.138v1.103H12.58z"/><path fill="#d9195c" style="stroke-width:.022406" d="M13.718 12.63h1.139v1.103h-1.139zm-3.416 1.103h1.139v1.102h-1.139z"/><path fill="#d62d75" style="stroke-width:.022406" d="M11.441 13.733h1.139v1.102h-1.14Z"/><path fill="#d9195c" style="stroke-width:.022406" d="M12.58 13.733h1.138v1.102H12.58z"/><path fill="#ee2178" style="stroke-width:.022406" d="M11.441 14.835h1.139v1.102h-1.14Z"/><path style="fill:#fff" d="m5.395 10.629-.593-.56 1.156-1.075 1.156-1.075-.15-.123A65 65 0 0 1 5.81 6.741l-1.007-.933.593-.556c.327-.306.613-.557.638-.557.024 0 .81.708 1.745 1.573l1.75 1.617c.043.038-3.378 3.26-3.494 3.291-.025.007-.313-.24-.639-.547z"/></svg>