<svg width="13" height="13" viewBox="0 0 16 16" xmlns="http://www.w3.org/2000/svg"><path fill="#7f54a7" fill-opacity=".7" d="m6.823 7.916-2.896 2.681 1.599 1.481 4.48-4.148-.015-.013.015-.015-4.48-4.149-1.6 1.481ZM.457 1.714h15.086v12.572H.457Z"/><path style="fill:#fff" d="m4.725 11.305-.745-.704L5.433 9.25l1.453-1.352-.188-.154a82.114 82.114 0 0 1-1.451-1.327L3.98 5.244l.745-.699c.411-.384.771-.7.802-.7.03 0 1.019.89 2.194 1.978l2.2 2.032c.054.048-4.246 4.099-4.392 4.138-.032.01-.394-.302-.804-.688z"/></svg>